<?xml version="1.0"?>
<svg xmlns="http://www.w3.org/2000/svg" xmlns:xlink="http://www.w3.org/1999/xlink" xmlns:svgjs="http://svgjs.com/svgjs" version="1.1" width="512" height="512" x="0" y="0" viewBox="0 0 24 24" style="enable-background:new 0 0 512 512" xml:space="preserve"><g><g xmlns="http://www.w3.org/2000/svg" id="_01_align_center" data-name="01 align center"><path d="M6,5A1,1,0,0,1,5,6H0V8H5A3,3,0,0,0,8,5V0H6Z" fill="#ffffff" data-original="#000000"/><path d="M16,19v5h2V19a1,1,0,0,1,1-1h5V16H19A3,3,0,0,0,16,19Z" fill="#ffffff" data-original="#000000"/><path d="M19,6a1,1,0,0,1-1-1V0H16V5a3,3,0,0,0,3,3h5V6Z" fill="#ffffff" data-original="#000000"/><path d="M5,16H0v2H5a1,1,0,0,1,1,1v5H8V19A3,3,0,0,0,5,16Z" fill="#ffffff" data-original="#000000"/></g></g></svg>
