<svg preserveAspectRatio="none" xmlns="http://www.w3.org/2000/svg" xmlns:xlink="http://www.w3.org/1999/xlink" viewBox="0 0 1042 152.64286"><defs><style>.a{fill:#a59267;}.b{fill:url(#a);}.c{fill:url(#b);}.d{fill:url(#c);}.e{fill:url(#d);}.f{fill:url(#e);}.g{fill:url(#f);}</style><linearGradient id="a" x1="389" y1="97" x2="389" y2="152.64286" gradientUnits="userSpaceOnUse"><stop offset="0" stop-color="#009245"/><stop offset="0.3564" stop-color="#008f44"/><stop offset="0.6235" stop-color="#008541"/><stop offset="0.86083" stop-color="#00753b"/><stop offset="1" stop-color="#006837"/></linearGradient><linearGradient id="b" x1="643" y1="11" x2="643" y2="66.64286" xlink:href="#a"/><linearGradient id="c" x1="842" x2="842" y2="152.64286" xlink:href="#a"/><linearGradient id="d" x1="814" y1="90" x2="814" y2="145.64286" xlink:href="#a"/><linearGradient id="e" x1="88" y1="8" x2="88" y2="63.64286" xlink:href="#a"/><linearGradient id="f" x1="109" y1="0" x2="109" y2="49.78571" xlink:href="#a"/></defs><rect class="a" y="48.64286" width="1042" height="92"/><polygon class="b" points="384.929 152.643 370 120.524 383.518 136.583 384.929 111.982 392.167 129.119 396.238 97 398.048 132.738 408 121.881 400.123 152.643 384.929 152.643"/><polygon class="c" points="638.929 66.643 624 34.524 637.518 50.583 638.929 25.982 646.167 43.119 650.238 11 652.048 46.738 662 35.881 654.123 66.643 638.929 66.643"/><polygon class="d" points="837.929 152.643 823 120.524 836.518 136.583 837.929 111.982 845.167 129.119 849.238 97 851.048 132.738 861 121.881 853.123 152.643 837.929 152.643"/><polygon class="e" points="809.929 145.643 795 113.524 808.518 129.583 809.929 104.982 817.167 122.119 821.238 90 823.048 125.738 833 114.881 825.123 145.643 809.929 145.643"/><polygon class="f" points="83.929 63.643 69 31.524 82.518 47.583 83.929 22.982 91.167 40.119 95.238 8 97.048 43.738 107 32.881 99.123 63.643 83.929 63.643"/><polygon class="g" points="105.357 49.786 92 21.048 104.095 35.417 105.357 13.405 111.833 28.738 115.476 0 117.095 31.976 126 22.262 118.952 49.786 105.357 49.786"/></svg>