<svg preserveAspectRatio="none" xmlns="http://www.w3.org/2000/svg" xmlns:xlink="http://www.w3.org/1999/xlink" viewBox="0 0 1024 768"><defs><style>.a{fill:none;}.b{clip-path:url(#a);}.c{fill:url(#b);}.d{fill:url(#c);}.e{fill:url(#d);}</style><clipPath id="a"><rect class="a" x="-0.5" y="-0.5" width="1027" height="769.5"/></clipPath><linearGradient id="b" x1="513" y1="-2.5" x2="513" y2="767.5" gradientUnits="userSpaceOnUse"><stop offset="0" stop-color="#00a99d"/><stop offset="1" stop-color="aqua"/></linearGradient><linearGradient id="c" x1="510.5" y1="220.35477" x2="510.5" y2="618" gradientTransform="matrix(-1, 0, 0, 1, 1023, 0)" xlink:href="#b"/><linearGradient id="d" x1="512.5" y1="376.35477" x2="512.5" y2="774" gradientUnits="userSpaceOnUse"><stop offset="0" stop-color="#009245"/><stop offset="1" stop-color="#006837"/></linearGradient></defs><g class="b"><rect class="c" x="-7.5" y="-2.5" width="1041" height="770"/><path class="d" d="M-8,308.58V618H1033V314.76c-49.42-24.09009-45-34.76-97.5-74.26-24.61147-18.5172-60.17-15.33008-74-19-39.89-10.58008-106.82,54.77-127,88-12.64,20.82007-17.86,30.93994-31,36-57.86,22.30005-87.5-56.5-146-52a111.19387,111.19387,0,0,0-49,16c-35.47,21.93994-137.27-58.38-198-36-42.67,15.72-23.54,28.7-72,48-53.48,21.30005-126.57-66.52-171-37-13.37,8.89-12.74,20.82007-34,34C18.25,327.96,3.79,307.57007-8,308.58Z"/><path class="e" d="M1033,464.58V774H-8V470.76C41.42,446.66992,37,436,89.5,396.5c24.61147-18.5172,60.17-15.33008,74-19,39.89-10.58008,106.82,54.77,127,88,12.64,20.82007,17.86,30.93994,31,36,57.86,22.30005,87.5-56.5,146-52a111.19387,111.19387,0,0,1,49,16c35.47,21.93994,137.27-58.38,198-36,42.67,15.72,23.54,28.7,72,48,53.48,21.30005,126.57-66.52,171-37,13.37,8.89,12.74,20.82007,34,34C1006.75,483.96,1021.21,463.57007,1033,464.58Z"/></g></svg>