<svg preserveAspectRatio="none" xmlns="http://www.w3.org/2000/svg" xmlns:xlink="http://www.w3.org/1999/xlink" viewBox="0 0 1024 768"><defs><style>.a{fill:none;}.b{clip-path:url(#a);}.c{fill:url(#b);}.d{fill:url(#c);}.e{fill:url(#d);}.f{fill:#a59267;}.g{fill:url(#e);}.h{fill:url(#f);}.i{fill:url(#g);}.j{fill:url(#h);}.k{fill:url(#i);}.l{fill:url(#j);}</style><clipPath id="a"><rect class="a" x="-0.5" y="-0.5" width="1027" height="769.5"/></clipPath><linearGradient id="b" x1="513" y1="-2.5" x2="513" y2="767.5" gradientUnits="userSpaceOnUse"><stop offset="0" stop-color="#00a99d"/><stop offset="1" stop-color="aqua"/></linearGradient><linearGradient id="c" x1="510.5" y1="220.35477" x2="510.5" y2="618" gradientTransform="matrix(-1, 0, 0, 1, 1023, 0)" xlink:href="#b"/><linearGradient id="d" x1="512.5" y1="376.35477" x2="512.5" y2="774" gradientUnits="userSpaceOnUse"><stop offset="0" stop-color="#009245"/><stop offset="1" stop-color="#006837"/></linearGradient><linearGradient id="e" x1="381" y1="665.35714" x2="381" y2="721" gradientUnits="userSpaceOnUse"><stop offset="0" stop-color="#009245"/><stop offset="0.3564" stop-color="#008f44"/><stop offset="0.6235" stop-color="#008541"/><stop offset="0.86083" stop-color="#00753b"/><stop offset="1" stop-color="#006837"/></linearGradient><linearGradient id="f" x1="635" y1="579.35714" x2="635" y2="635" xlink:href="#e"/><linearGradient id="g" x1="834" y1="665.35714" x2="834" xlink:href="#e"/><linearGradient id="h" x1="806" y1="658.35714" x2="806" y2="714" xlink:href="#e"/><linearGradient id="i" x1="80" y1="576.35714" x2="80" y2="632" xlink:href="#e"/><linearGradient id="j" x1="101" y1="568.35714" x2="101" y2="618.14286" xlink:href="#e"/></defs><g class="b"><rect class="c" x="-7.5" y="-2.5" width="1041" height="770"/><path class="d" d="M-8,308.58V618H1033V314.76c-49.42-24.09009-45-34.76-97.5-74.26-24.61147-18.5172-60.17-15.33008-74-19-39.89-10.58008-106.82,54.77-127,88-12.64,20.82007-17.86,30.93994-31,36-57.86,22.30005-87.5-56.5-146-52a111.19387,111.19387,0,0,0-49,16c-35.47,21.93994-137.27-58.38-198-36-42.67,15.72-23.54,28.7-72,48-53.48,21.30005-126.57-66.52-171-37-13.37,8.89-12.74,20.82007-34,34C18.25,327.96,3.79,307.57007-8,308.58Z"/><path class="e" d="M1033,464.58V774H-8V470.76C41.42,446.66992,37,436,89.5,396.5c24.61147-18.5172,60.17-15.33008,74-19,39.89-10.58008,106.82,54.77,127,88,12.64,20.82007,17.86,30.93994,31,36,57.86,22.30005,87.5-56.5,146-52a111.19387,111.19387,0,0,1,49,16c35.47,21.93994,137.27-58.38,198-36,42.67,15.72,23.54,28.7,72,48,53.48,21.30005,126.57-66.52,171-37,13.37,8.89,12.74,20.82007,34,34C1006.75,483.96,1021.21,463.57007,1033,464.58Z"/><rect class="f" x="-8" y="617" width="1042" height="92"/><polygon class="g" points="376.929 721 362 688.881 375.518 704.94 376.929 680.339 384.167 697.476 388.238 665.357 390.048 701.095 400 690.238 392.123 721 376.929 721"/><polygon class="h" points="630.929 635 616 602.881 629.518 618.94 630.929 594.339 638.167 611.476 642.238 579.357 644.048 615.095 654 604.238 646.123 635 630.929 635"/><polygon class="i" points="829.929 721 815 688.881 828.518 704.94 829.929 680.339 837.167 697.476 841.238 665.357 843.048 701.095 853 690.238 845.123 721 829.929 721"/><polygon class="j" points="801.929 714 787 681.881 800.518 697.94 801.929 673.339 809.167 690.476 813.238 658.357 815.048 694.095 825 683.238 817.123 714 801.929 714"/><polygon class="k" points="75.929 632 61 599.881 74.518 615.94 75.929 591.339 83.167 608.476 87.238 576.357 89.048 612.095 99 601.238 91.123 632 75.929 632"/><polygon class="l" points="97.357 618.143 84 589.405 96.095 603.774 97.357 581.762 103.833 597.095 107.476 568.357 109.095 600.333 118 590.619 110.952 618.143 97.357 618.143"/></g></svg>