<svg xmlns="http://www.w3.org/2000/svg" xmlns:xlink="http://www.w3.org/1999/xlink" viewBox="0 0 439.05882 427.5"><defs><style>.a{fill:none;}.b{clip-path:url(#a);}.c{clip-path:url(#b);}.d{fill:url(#c);}.e{fill:url(#d);}.f{fill:url(#e);}.g{fill:#a59267;}.h{fill:url(#f);}.i{fill:url(#g);}</style><clipPath id="a"><ellipse class="a" cx="220" cy="214" rx="219.5" ry="214"/></clipPath><clipPath id="b"><rect class="a" x="-334.5" y="-264" width="1027" height="769.5"/></clipPath><linearGradient id="c" x1="179" y1="-266" x2="179" y2="504" gradientUnits="userSpaceOnUse"><stop offset="0" stop-color="#00a99d"/><stop offset="1" stop-color="aqua"/></linearGradient><linearGradient id="d" x1="2466.5" y1="-43.14523" x2="2466.5" y2="354.5" gradientTransform="matrix(-1, 0, 0, 1, 2645, 0)" xlink:href="#c"/><linearGradient id="e" x1="178.5" y1="112.85477" x2="178.5" y2="510.5" gradientUnits="userSpaceOnUse"><stop offset="0" stop-color="#009245"/><stop offset="1" stop-color="#006837"/></linearGradient><linearGradient id="f" x1="54.05882" y1="411.35504" x2="54.05882" y2="466.9979" gradientUnits="userSpaceOnUse"><stop offset="0" stop-color="#009245"/><stop offset="0.3564" stop-color="#008f44"/><stop offset="0.6235" stop-color="#008541"/><stop offset="0.86083" stop-color="#00753b"/><stop offset="1" stop-color="#006837"/></linearGradient><linearGradient id="g" x1="308.05882" y1="325.35504" x2="308.05882" y2="380.9979" xlink:href="#f"/></defs><g class="b"><g class="c"><rect class="d" x="-341.5" y="-266" width="1041" height="770"/><path class="e" d="M-342,45.08V354.5H699V51.26C649.58,27.16992,654,16.5,601.5-23c-24.61147-18.5172-60.17-15.33008-74-19-39.89-10.58008-106.82,54.77-127,88-12.64,20.82007-17.86,30.93994-31,36-57.86,22.30005-87.5-56.5-146-52a111.19387,111.19387,0,0,0-49,16C139.03,67.93994,37.23-12.38-23.5,10c-42.67,15.72-23.54,28.7-72,48-53.48,21.30005-126.57-66.52-171-37-13.37,8.89-12.74,20.82007-34,34C-315.75,64.46-330.21,44.07007-342,45.08Z"/><path class="f" d="M699,201.08V510.5H-342V207.26c49.42-24.09009,45-34.76,97.5-74.26,24.61147-18.5172,60.17-15.33008,74-19,39.89-10.58008,106.82,54.77,127,88,12.64,20.82007,17.86,30.93994,31,36,57.86,22.30005,87.5-56.5,146-52a111.19387,111.19387,0,0,1,49,16c35.47,21.93994,137.27-58.38,198-36,42.67,15.72,23.54,28.7,72,48,53.48,21.30005,126.57-66.52,171-37,13.37,8.89,12.74,20.82007,34,34C672.75,220.46,687.21,200.07007,699,201.08Z"/></g><rect class="g" x="-334.94118" y="362.9979" width="1042" height="92"/><polygon class="h" points="49.987 466.998 35.059 434.879 48.577 450.938 49.987 426.337 57.225 443.474 61.297 411.355 63.106 447.093 73.059 436.236 65.182 466.998 49.987 466.998"/><polygon class="i" points="303.987 380.998 289.059 348.879 302.577 364.938 303.987 340.337 311.225 357.474 315.297 325.355 317.106 361.093 327.059 350.236 319.182 380.998 303.987 380.998"/></g></svg>